<?xml version="1.0" encoding="utf-8"?>
<!-- Generator: Adobe Illustrator 24.1.2, SVG Export Plug-In . SVG Version: 6.00 Build 0)  -->
<svg version="1.1" id="Слой_1" xmlns="http://www.w3.org/2000/svg" xmlns:xlink="http://www.w3.org/1999/xlink" x="0px" y="0px"
	 viewBox="0 0 1280 1280" style="enable-background:new 0 0 1280 1280;" xml:space="preserve">
<path d="M676.9,668c11.1-13.5,13.3-34.9,5.2-51.3c-6.7-13.6-21.6-23.9-37.2-25.5c-14-1.5-25.4,2.2-36.1,11.5
	c-10.8,9.4-15.9,20.1-16.4,34.6l0,0c-0.1,4.5-2.3,8.6-5.8,11.3l-32.8,24.8c-21,16.1-59.2,44.9-84.6,64.2
	c-25.5,19.3-73.1,55.4-105.8,80.2s-77.8,59-100.2,76c-22.4,17-41.2,31.2-41.8,31.9c-1.2,1.2,6.4-3.3,36.8-21.7
	c27.8-16.9,102.3-62.1,129.2-78.5c12.1-7.4,45.1-27.4,73.3-44.5c48.7-29.5,79.6-48.4,136.1-82.7c24.2-14.8,25.2-15.3,28.4-14.5
	c14.9,3.4,29,1.7,39.9-5.2C671.2,674.6,672,673.9,676.9,668z"/>
</svg>
