<?xml version="1.0" encoding="utf-8"?>
<!-- Generator: Adobe Illustrator 24.1.2, SVG Export Plug-In . SVG Version: 6.00 Build 0)  -->
<svg version="1.1" id="Слой_1" xmlns="http://www.w3.org/2000/svg" xmlns:xlink="http://www.w3.org/1999/xlink" x="0px" y="0px"
	 viewBox="0 0 1280 1280" style="enable-background:new 0 0 1280 1280;" xml:space="preserve">
<g transform="translate(0.000000,1280.000000) scale(0.100000,-0.100000)">
	<path d="M6100,12794c-374-25-548-44-810-90c-1350-236-2613-918-3548-1917C827,9810,254,8621,66,7310c-49-339-60-507-60-910
		s11-571,60-910c176-1225,698-2364,1514-3300c136-156,435-456,598-598C3149,741,4337,206,5605,51c306-38,447-46,795-46s489,8,795,46
		c1258,154,2451,688,3415,1529c153,133,463,444,603,604c820,935,1345,2076,1521,3306c49,339,60,507,60,910c0,402-11,570-60,910
		c-195,1370-827,2632-1810,3614c-654,654-1415,1144-2289,1474c-532,200-1098,327-1720,382C6802,12791,6199,12801,6100,12794z
		 M6961,12011c515-51,1031-177,1514-368c178-71,475-206,475-216c0-3-158-278-351-612s-353-613-355-620c-6-15,415-260,427-248
		c4,4,166,283,360,618c193,336,353,612,355,614c6,7,231-146,389-264c448-336,804-692,1140-1140c153-204,212-295,197-303
		c-6-4-297-171-646-372s-635-368-636-372c0-7,227-406,240-421c5-6,1007,564,1302,740c9,5,100-174,185-367c204-459,351-969,422-1465
		c24-163,51-444,51-527v-58h-715h-715v-250v-250h716h717l-7-107c-47-713-231-1409-548-2074c-48-101-65-128-77-124
		c-9,4-313,178-676,387s-662,382-665,383c-7,4-254-424-249-430c2-2,306-178,674-390c369-213,672-389,674-391c3-2-31-57-75-122
		c-665-987-1614-1736-2719-2147c-478-177-922-278-1470-332c-121-12-265-16-495-16c-326,0-507,11-775,49
		c-1054,148-2019,575-2835,1255c-252,209-516,473-725,724c-145,173-436,578-424,589c2,2,279,162,614,355c336,194,613,356,617,359
		c12,12-235,433-250,427c-7-3-286-162-619-355c-333-192-609-350-613-350s-35,58-69,130c-299,629-473,1258-536,1940
		c-8,91-15,182-15,203v37h715h715v250v250h-715H770v58c0,83,27,364,51,527c59,410,174,845,324,1230c61,156,207,481,222,496
		c4,4,280-151,613-343c333-193,612-352,621-355c23-7,267,416,247,428c-7,5-287,167-621,360c-411,238-606,356-603,365
		c11,28,171,260,270,392c327,433,678,784,1116,1116c142,108,289,210,295,204c2-1,146-250,320-553c175-302,335-580,356-617l39-67
		l203,116c111,64,207,121,214,127c12,11-10,51-575,1029l-132,228l183,89c548,266,1091,435,1672,519c173,25,473,53,486,46
		c5-4,9-287,9-718v-712h245h245v716c0,394,2,718,4,720C6580,12037,6825,12024,6961,12011z"/>
</g>
</svg>
